<svg width="154" height="42" viewBox="0 0 154 42" xmlns="http://www.w3.org/2000/svg" xmlns:sketch="http://www.bohemiancoding.com/sketch/ns"><title>Group + Group + Group</title><desc>Created with Sketch.</desc><g sketch:type="MSShapeGroup" fill="#fff"><g id="Group"><path d="M25.179 19.698c-.041-4.512 3.695-6.707 3.865-6.81-2.115-3.084-5.394-3.506-6.546-3.539-2.754-.29-5.425 1.648-6.828 1.648-1.431 0-3.591-1.62-5.919-1.572-2.996.046-5.799 1.781-7.336 4.474-3.172 5.492-.806 13.563 2.233 18.003 1.52 2.174 3.297 4.602 5.622 4.516 2.275-.094 3.125-1.45 5.87-1.45 2.72 0 3.518 1.45 5.89 1.396 2.442-.039 3.979-2.184 5.446-4.378 1.757-2.492 2.463-4.946 2.491-5.072-.057-.02-4.742-1.807-4.788-7.216zM20.699 6.428c1.224-1.53 2.061-3.612 1.828-5.725-1.771.078-3.986 1.225-5.261 2.722-1.128 1.319-2.136 3.48-1.876 5.513 1.989.148 4.032-1.004 5.309-2.51z" id="Shape"/></g><g id="Group"><path d="M58.103 36.106h-3.179l-1.742-5.473h-6.054l-1.659 5.473h-3.095l5.998-18.631h3.704l6.027 18.631zm-5.446-7.769l-1.575-4.865c-.167-.497-.479-1.667-.939-3.51h-.056c-.183.792-.479 1.963-.885 3.51l-1.547 4.865h5.002zM73.527 29.223c0 2.285-.617 4.091-1.852 5.417-1.106 1.18-2.479 1.77-4.119 1.77-1.77 0-3.041-.636-3.815-1.907h-.056v7.077h-2.985v-14.486c0-1.436-.038-2.911-.111-4.423h2.625l.167 2.129h.056c.995-1.604 2.506-2.405 4.533-2.405 1.585 0 2.908.626 3.966 1.879 1.061 1.254 1.59 2.904 1.59 4.949zm-3.041.109c0-1.308-.294-2.386-.885-3.234-.645-.885-1.512-1.327-2.598-1.327-.736 0-1.406.246-2.003.732-.599.49-.991 1.13-1.175 1.922-.092.37-.139.672-.139.91v2.24c0 .977.3 1.802.899 2.475s1.378 1.009 2.335 1.009c1.124 0 1.999-.434 2.625-1.299.627-.867.941-2.009.941-3.429zM88.979 29.223c0 2.285-.617 4.091-1.854 5.417-1.105 1.18-2.478 1.77-4.117 1.77-1.77 0-3.041-.636-3.814-1.907h-.056v7.077h-2.985v-14.486c0-1.436-.038-2.911-.111-4.423h2.625l.167 2.129h.056c.994-1.604 2.505-2.405 4.533-2.405 1.583 0 2.906.626 3.968 1.879 1.057 1.254 1.588 2.904 1.588 4.949zm-3.041.109c0-1.308-.295-2.386-.886-3.234-.645-.885-1.509-1.327-2.597-1.327-.738 0-1.406.246-2.005.732-.599.49-.99 1.13-1.173 1.922-.091.37-.139.672-.139.91v2.24c0 .977.3 1.802.896 2.475.599.672 1.378 1.009 2.338 1.009 1.124 0 1.999-.434 2.625-1.299.627-.867.941-2.009.941-3.429zM106.255 30.881c0 1.585-.55 2.874-1.655 3.87-1.214 1.088-2.904 1.631-5.075 1.631-2.005 0-3.612-.386-4.829-1.161l.692-2.488c1.31.792 2.748 1.19 4.315 1.19 1.124 0 1.999-.255 2.628-.762.626-.507.938-1.187.938-2.036 0-.756-.258-1.393-.774-1.91-.514-.517-1.372-.997-2.57-1.441-3.262-1.217-4.892-2.999-4.892-5.342 0-1.532.571-2.787 1.715-3.765 1.14-.979 2.66-1.467 4.561-1.467 1.695 0 3.104.295 4.228.885l-.746 2.433c-1.05-.571-2.237-.857-3.566-.857-1.05 0-1.87.259-2.458.774-.497.461-.746 1.022-.746 1.687 0 .736.284 1.345.855 1.824.497.442 1.4.921 2.71 1.438 1.603.645 2.78 1.4 3.538 2.265.755.862 1.131 1.942 1.131 3.23zM116.123 24.911h-3.29v6.523c0 1.659.58 2.488 1.742 2.488.533 0 .976-.046 1.326-.139l.083 2.267c-.588.22-1.362.33-2.321.33-1.179 0-2.1-.36-2.765-1.078-.662-.72-.995-1.926-.995-3.622v-6.772h-1.96v-2.24h1.96v-2.46l2.932-.885v3.345h3.29v2.243zM130.967 29.278c0 2.065-.591 3.76-1.77 5.086-1.236 1.365-2.877 2.045-4.922 2.045-1.971 0-3.541-.654-4.711-1.961-1.17-1.308-1.756-2.958-1.756-4.948 0-2.082.602-3.787 1.81-5.113 1.205-1.327 2.832-1.991 4.878-1.991 1.971 0 3.557.654 4.754 1.963 1.145 1.27 1.716 2.909 1.716 4.918zm-3.097.097c0-1.239-.265-2.302-.801-3.188-.626-1.072-1.52-1.607-2.68-1.607-1.2 0-2.111.536-2.737 1.607-.536.888-.801 1.967-.801 3.244 0 1.239.265 2.302.801 3.186.645 1.072 1.547 1.607 2.71 1.607 1.14 0 2.034-.546 2.68-1.635.55-.903.827-1.977.827-3.214zM140.669 25.296c-.295-.055-.61-.083-.941-.083-1.05 0-1.862.396-2.433 1.19-.497.7-.746 1.585-.746 2.653v7.049h-2.983l.028-9.204c0-1.548-.038-2.958-.112-4.229h2.6l.109 2.57h.083c.315-.883.812-1.595 1.492-2.128.665-.48 1.383-.72 2.157-.72.276 0 .525.02.746.055v2.846zM154.018 28.753c0 .535-.035.986-.109 1.354h-8.954c.035 1.327.468 2.342 1.299 3.042.755.626 1.73.939 2.929.939 1.326 0 2.535-.211 3.623-.636l.468 2.072c-1.271.554-2.772.83-4.504.83-2.083 0-3.718-.613-4.908-1.838-1.187-1.225-1.782-2.87-1.782-4.934 0-2.026.553-3.713 1.66-5.058 1.159-1.436 2.726-2.155 4.697-2.155 1.936 0 3.402.718 4.397 2.155.788 1.141 1.184 2.552 1.184 4.228zm-2.846-.774c.02-.885-.175-1.649-.58-2.295-.517-.83-1.31-1.245-2.379-1.245-.976 0-1.77.405-2.376 1.217-.497.645-.792 1.42-.883 2.321h6.217v.001z" id="Shape"/></g><g><path d="M51.67 6.013c0 1.648-.494 2.888-1.481 3.721-.914.769-2.213 1.154-3.896 1.154-.834 0-1.548-.036-2.146-.109v-9.003c.78-.126 1.62-.19 2.527-.19 1.603 0 2.811.349 3.626 1.046.913.788 1.371 1.915 1.371 3.382zm-1.547.041c0-1.068-.283-1.887-.848-2.458-.566-.57-1.392-.855-2.479-.855-.462 0-.855.031-1.182.095v6.845c.181.028.511.041.991.041 1.123 0 1.989-.312 2.6-.937.61-.624.918-1.534.918-2.73zM59.873 7.452c0 1.015-.29 1.847-.869 2.499-.608.671-1.413 1.005-2.418 1.005-.969 0-1.74-.321-2.316-.965-.574-.643-.861-1.453-.861-2.43 0-1.022.295-1.861.889-2.512.594-.651 1.392-.977 2.397-.977.969 0 1.747.321 2.337.963.56.624.841 1.431.841 2.416zm-1.522.048c0-.609-.132-1.131-.393-1.567-.308-.526-.746-.79-1.316-.79-.589 0-1.037.263-1.345.79-.263.435-.393.966-.393 1.593 0 .609.132 1.131.393 1.567.318.526.76.79 1.331.79.56 0 1-.267 1.316-.804.272-.444.407-.97.407-1.579zM70.871 4.207l-2.065 6.6h-1.344l-.855-2.866c-.217-.715-.393-1.427-.531-2.132h-.027c-.127.725-.304 1.435-.531 2.132l-.909 2.866h-1.359l-1.942-6.6h1.508l.746 3.137c.181.742.329 1.449.448 2.118h.027c.109-.552.29-1.254.545-2.104l.937-3.15h1.196l.897 3.083c.217.752.393 1.476.529 2.173h.041c.099-.679.249-1.403.448-2.173l.801-3.083h1.441v-.001zM78.477 10.806h-1.467v-3.78c0-1.165-.442-1.747-1.33-1.747-.435 0-.787.16-1.06.48-.27.321-.407.699-.407 1.131v3.914h-1.467v-4.712c0-.58-.018-1.208-.053-1.889h1.289l.069 1.032h.041c.171-.321.426-.585.76-.797.398-.246.843-.371 1.33-.371.616 0 1.128.199 1.536.598.507.489.76 1.218.76 2.187v3.954zM82.523 10.806h-1.466v-9.628h1.466v9.628zM91.161 7.452c0 1.015-.29 1.847-.869 2.499-.608.671-1.414 1.005-2.418 1.005-.97 0-1.742-.321-2.316-.965-.574-.643-.861-1.453-.861-2.43 0-1.022.295-1.861.889-2.512.594-.651 1.392-.977 2.395-.977.97 0 1.747.321 2.338.963.56.624.841 1.431.841 2.416zm-1.523.048c0-.609-.132-1.131-.393-1.567-.307-.526-.746-.79-1.315-.79-.591 0-1.039.263-1.345.79-.263.435-.393.966-.393 1.593 0 .609.132 1.131.393 1.567.318.526.76.79 1.331.79.56 0 .998-.267 1.315-.804.273-.444.407-.97.407-1.579zM98.262 10.806h-1.317l-.109-.76h-.041c-.451.606-1.093.91-1.928.91-.623 0-1.127-.2-1.506-.598-.344-.361-.517-.811-.517-1.344 0-.806.336-1.421 1.012-1.847.675-.426 1.624-.634 2.846-.624v-.123c0-.869-.456-1.303-1.371-1.303-.651 0-1.225.164-1.721.489l-.298-.963c.613-.379 1.371-.57 2.264-.57 1.725 0 2.59.91 2.59 2.73v2.43c0 .659.032 1.184.095 1.574zm-1.523-2.268v-1.018c-1.618-.028-2.428.416-2.428 1.33 0 .344.092.602.281.774.189.172.43.258.717.258.322 0 .623-.102.897-.305.276-.204.445-.463.508-.781l.024-.258zM106.599 10.806h-1.302l-.069-1.06h-.041c-.416.806-1.124 1.21-2.12 1.21-.795 0-1.457-.312-1.982-.937-.525-.624-.787-1.435-.787-2.43 0-1.068.284-1.933.855-2.594.553-.616 1.231-.924 2.037-.924.886 0 1.506.298 1.859.896h.028v-3.788h1.469v7.85c0 .643.017 1.235.052 1.778zm-1.52-2.783v-1.1c0-.19-.014-.344-.041-.462-.083-.353-.26-.65-.531-.889-.273-.239-.602-.36-.981-.36-.547 0-.976.217-1.291.652-.312.435-.47.991-.47 1.67 0 .652.15 1.182.451 1.589.318.434.746.651 1.282.651.482 0 .867-.181 1.159-.543.283-.335.421-.738.421-1.208zM119.147 7.452c0 1.015-.29 1.847-.869 2.499-.608.671-1.411 1.005-2.418 1.005-.967 0-1.739-.321-2.316-.965-.574-.643-.861-1.453-.861-2.43 0-1.022.295-1.861.889-2.512.594-.651 1.392-.977 2.398-.977.967 0 1.747.321 2.335.963.56.624.841 1.431.841 2.416zm-1.52.048c0-.609-.132-1.131-.393-1.567-.309-.526-.746-.79-1.317-.79-.588 0-1.036.263-1.345.79-.263.435-.393.966-.393 1.593 0 .609.132 1.131.393 1.567.318.526.76.79 1.331.79.56 0 1.001-.267 1.317-.804.27-.444.407-.97.407-1.579zM127.036 10.806h-1.466v-3.78c0-1.165-.442-1.747-1.331-1.747-.435 0-.787.16-1.058.48-.272.321-.407.699-.407 1.131v3.914h-1.469v-4.712c0-.58-.017-1.208-.052-1.889h1.288l.069 1.032h.041c.172-.321.427-.585.76-.797.399-.246.843-.371 1.331-.371.615 0 1.127.199 1.534.598.508.489.76 1.218.76 2.187v3.954zM136.91 5.306h-1.616v3.206c0 .815.287 1.222.855 1.222.263 0 .482-.022.654-.069l.038 1.113c-.29.109-.671.164-1.14.164-.58 0-1.03-.176-1.357-.529-.328-.353-.49-.946-.49-1.779v-3.328h-.965v-1.099h.965v-1.21l1.438-.434v1.642h1.616v1.1h.001zM144.678 10.806h-1.469v-3.752c0-1.183-.442-1.775-1.329-1.775-.68 0-1.145.343-1.4 1.029-.043.144-.069.321-.069.528v3.969h-1.466v-9.626h1.466v3.977h.028c.462-.724 1.124-1.085 1.982-1.085.608 0 1.11.199 1.509.598.497.497.746 1.236.746 2.213v3.924zM152.69 7.194c0 .263-.02.484-.055.665h-4.4c.02.652.23 1.149.637 1.494.372.308.853.462 1.441.462.651 0 1.245-.104 1.779-.312l.23 1.019c-.626.272-1.362.407-2.215.407-1.022 0-1.827-.301-2.409-.903-.585-.602-.875-1.41-.875-2.423 0-.995.27-1.824.815-2.485.568-.706 1.337-1.058 2.307-1.058.949 0 1.67.353 2.157 1.058.393.56.588 1.253.588 2.076zm-1.4-.379c.011-.435-.085-.811-.284-1.127-.255-.407-.643-.612-1.168-.612-.479 0-.869.199-1.168.598-.244.318-.388.697-.435 1.141h3.055z"/></g></g></svg>